# xmcd
#
# Track frame offsets: 
#        180
#        13281
#        26694
#        40474
#        51918
#        65894
#        76329
#        90355
#        102426
#        115008
#        129154
#        142873
#        155073
#        168863
#        181977
#        194744
#
# Disc length: 3078 seconds
#
# Revision: 15
# Processed by: cddbd v1.5.2PL0 Copyright (c) Steve Scherf et al.
# Submitted via: ExactAudioCopyFreeDBPlugin 1.0
#
DISCID=d90c0410
DTITLE=Various Artist - Best Of Blues
DYEAR=1999
DGENRE=Blues
TTITLE0=Muddy Waters - Mannish Boy
TTITLE1=John Lee  Hooker - One Bourbon, One Scotch, One Beer
TTITLE2=Willie Dixon - Walkin' The Blues
TTITLE3=Little Walter - My Babe
TTITLE4=Howlin' Wolf - Smokestack Lightnin'
TTITLE5=Sonny Boy Williamso - Let Your Conscience Be Your Guide
TTITLE6=Little Milton - I'm Gonna Move To The Outskirts Of Town
TTITLE7=Buddy Guy - Ten Years Ago
TTITLE8=Albert King - California Blues
TTITLE9=Willie Mabon - I Don't Know
TTITLE10=Muddy Waters - I'm Ready
TTITLE11=Otis Spann - It Must've Been The Devil
TTITLE12=Elmore James - Dust My Broom
TTITLE13=Little Walter - Mean Old World
TTITLE14=John Lee Hooker - Hobo Blues
TTITLE15=Big Joe Turner - Roll Me Baby
EXTD=YEAR: 1999
EXTT0=
EXTT1=
EXTT2=
EXTT3=
EXTT4=
EXTT5=
EXTT6=
EXTT7=
EXTT8=
EXTT9=
EXTT10=
EXTT11=
EXTT12=
EXTT13=
EXTT14=
EXTT15=
PLAYORDER=
